# xmcd
#
# Track frame offsets: 
#        150
#        29447
#        45360
#        73192
#        84735
#        97070
#        143232
#        169425
#        181960
#        193645
#        212692
#        251357
#        265997
#        278545
#        290475
#        311207
#
# Disc length: 4484 seconds
#
# Revision: 2
# Processed by: cddbd v1.5.2PL0 Copyright (c) Steve Scherf et al.
# Submitted via: ExactAudioCopyFreeDBPlugin 1.0
#
DISCID=f4118210
DTITLE=B.B. King - B.B. King:  King of the Blues [box set]
DYEAR=1992
DGENRE=Blues
TTITLE0=Goin' Down Slow (live) (previously unreleased)
TTITLE1=Tired of Your Jive (live)
TTITLE2=Sweet Sixteen, Parts 1 and 2 (live)
TTITLE3=Paying the Cost to Be the Boss
TTITLE4=I'm Gonna Do What They Do to Me
TTITLE5=Lucille
TTITLE6=Watch Yourself
TTITLE7=You Put it on Me
TTITLE8=Get Myself Somebody
TTITLE9=I Want You So Bad
TTITLE10=Why I Sing the Blues
TTITLE11=Get Off My Back Woman
TTITLE12=Please Accept My Love (live)
TTITLE13=Fools Get Wise (previously unreleased)
TTITLE14=No Good
TTITLE15=So Excited
EXTD=
EXTT0=
EXTT1=
EXTT2=
EXTT3=
EXTT4=
EXTT5=
EXTT6=
EXTT7=
EXTT8=
EXTT9=
EXTT10=
EXTT11=
EXTT12=
EXTT13=
EXTT14=
EXTT15=
PLAYORDER=
